# xmcd
# 
# Track frame offsets:
#     150
#     2420
#     5810
#     9139
#     12636
#     15835
#     19335
#     22716
#     26044
#     29536
#     32842
#     36161
#     39465
#     43103
#     46145
#     49674
#     53022
#     56594
#     59909
#     63465
#     66605
#     70189
#     73241
#     76741
#     80029
#     83425
#     86744
#     90452
#     93545
#     97075
#     100284
#     103636
#     107048
#     110346
#     113751
#     117181
#     120419
#     123873
#     127267
#     130688
#     134136
#     137686
#     140720
#     144349
#     147610
#     151017
#     154435
#     157557
#     160933
#     164526
#     167731
#     171155
#     174426
#     177764
#     181210
#     184788
#     188212
#     191388
#     194757
#     198357
#     201670
#     204963
#     208363
#     211810
#     215070
#     218451
#     221834
#     225247
#     228481
#     232076
#     235390
#     238707
#     242102
#     245435
#     248774
#     252106
#     255571
#     258939
#     262230
#     265881
#     269052
#     272680
#     275767
#     279367
#     283235
#     286887
#     290270
#     293771
#     297238
#     300474
#     303889
#     307257
#     310698
#     314034
#     317468
#     320742
#     324084
#     327478
#     330251
# 
# Disc length: 4440
# 
# Revision: 2
# Processed by: cddbd v1.5.2PL0 Copyright (c) Steve Scherf et al.
# Submitted via: fre:ac v1.0.27
# 
DISCID=c3115663
DTITLE=Gregg Hurwitz - They're Watching 7
DYEAR=2004
DGENRE=Audio Book
TTITLE0=0701
TTITLE1=0702
TTITLE2=0703
TTITLE3=0704
TTITLE4=0705
TTITLE5=0706
TTITLE6=0707
TTITLE7=0708
TTITLE8=0709
TTITLE9=0710
TTITLE10=0711
TTITLE11=0712
TTITLE12=0713
TTITLE13=0714
TTITLE14=0715
TTITLE15=0716
TTITLE16=0717
TTITLE17=0718
TTITLE18=0719
TTITLE19=0720
TTITLE20=0721
TTITLE21=0722
TTITLE22=0723
TTITLE23=0724
TTITLE24=0725
TTITLE25=0726
TTITLE26=0727
TTITLE27=0728
TTITLE28=0729
TTITLE29=0730
TTITLE30=0731
TTITLE31=0732
TTITLE32=0733
TTITLE33=0734
TTITLE34=0735
TTITLE35=0736
TTITLE36=0737
TTITLE37=0738
TTITLE38=0739
TTITLE39=0740
TTITLE40=0741
TTITLE41=0742
TTITLE42=0743
TTITLE43=0744
TTITLE44=0745
TTITLE45=0746
TTITLE46=0747
TTITLE47=0748
TTITLE48=0749
TTITLE49=0750
TTITLE50=0751
TTITLE51=0752
TTITLE52=0753
TTITLE53=0754
TTITLE54=0755
TTITLE55=0756
TTITLE56=0757
TTITLE57=0758
TTITLE58=0759
TTITLE59=0760
TTITLE60=0761
TTITLE61=0762
TTITLE62=0763
TTITLE63=0764
TTITLE64=0765
TTITLE65=0766
TTITLE66=0767
TTITLE67=0768
TTITLE68=0769
TTITLE69=0770
TTITLE70=0771
TTITLE71=0772
TTITLE72=0773
TTITLE73=0774
TTITLE74=0775
TTITLE75=0776
TTITLE76=0777
TTITLE77=0778
TTITLE78=0779
TTITLE79=0780
TTITLE80=0781
TTITLE81=0782
TTITLE82=0783
TTITLE83=0784
TTITLE84=0785
TTITLE85=0786
TTITLE86=0787
TTITLE87=0788
TTITLE88=0789
TTITLE89=0790
TTITLE90=0791
TTITLE91=0792
TTITLE92=0793
TTITLE93=0794
TTITLE94=0795
TTITLE95=0796
TTITLE96=0797
TTITLE97=0798
TTITLE98=0799
EXTD=YEAR: 2004
EXTT0=
EXTT1=
EXTT2=
EXTT3=
EXTT4=
EXTT5=
EXTT6=
EXTT7=
EXTT8=
EXTT9=
EXTT10=
EXTT11=
EXTT12=
EXTT13=
EXTT14=
EXTT15=
EXTT16=
EXTT17=
EXTT18=
EXTT19=
EXTT20=
EXTT21=
EXTT22=
EXTT23=
EXTT24=
EXTT25=
EXTT26=
EXTT27=
EXTT28=
EXTT29=
EXTT30=
EXTT31=
EXTT32=
EXTT33=
EXTT34=
EXTT35=
EXTT36=
EXTT37=
EXTT38=
EXTT39=
EXTT40=
EXTT41=
EXTT42=
EXTT43=
EXTT44=
EXTT45=
EXTT46=
EXTT47=
EXTT48=
EXTT49=
EXTT50=
EXTT51=
EXTT52=
EXTT53=
EXTT54=
EXTT55=
EXTT56=
EXTT57=
EXTT58=
EXTT59=
EXTT60=
EXTT61=
EXTT62=
EXTT63=
EXTT64=
EXTT65=
EXTT66=
EXTT67=
EXTT68=
EXTT69=
EXTT70=
EXTT71=
EXTT72=
EXTT73=
EXTT74=
EXTT75=
EXTT76=
EXTT77=
EXTT78=
EXTT79=
EXTT80=
EXTT81=
EXTT82=
EXTT83=
EXTT84=
EXTT85=
EXTT86=
EXTT87=
EXTT88=
EXTT89=
EXTT90=
EXTT91=
EXTT92=
EXTT93=
EXTT94=
EXTT95=
EXTT96=
EXTT97=
EXTT98=
PLAYORDER=
